<?xml version="1.0" encoding="UTF-8" standalone="no"?>
<!-- Created with Inkscape (http://www.inkscape.org/) -->

<svg
   width="50"
   height="50"
   viewBox="0 0 13.229164 13.229167"
   version="1.1"
   id="svg1"
   inkscape:version="1.3.2 (091e20ef0f, 2023-11-25, custom)"
   sodipodi:docname="backArrow.svg"
   inkscape:export-filename="columnDecoBottom.png"
   inkscape:export-xdpi="96"
   inkscape:export-ydpi="96"
   xmlns:inkscape="http://www.inkscape.org/namespaces/inkscape"
   xmlns:sodipodi="http://sodipodi.sourceforge.net/DTD/sodipodi-0.dtd"
   xmlns="http://www.w3.org/2000/svg"
   xmlns:svg="http://www.w3.org/2000/svg">
  <sodipodi:namedview
     id="namedview1"
     pagecolor="#ffffff"
     bordercolor="#111111"
     borderopacity="1"
     inkscape:showpageshadow="0"
     inkscape:pageopacity="0"
     inkscape:pagecheckerboard="1"
     inkscape:deskcolor="#d1d1d1"
     inkscape:document-units="px"
     showgrid="true"
     inkscape:zoom="14.705747"
     inkscape:cx="23.596217"
     inkscape:cy="22.440206"
     inkscape:window-width="1914"
     inkscape:window-height="1048"
     inkscape:window-x="0"
     inkscape:window-y="26"
     inkscape:window-maximized="1"
     inkscape:current-layer="layer1">
    <inkscape:grid
       id="grid1"
       units="px"
       originx="0"
       originy="0"
       spacingx="1.3229167"
       spacingy="2.6458334"
       empcolor="#0099e5"
       empopacity="0.30196078"
       color="#0099e5"
       opacity="0.14901961"
       empspacing="5"
       dotted="false"
       gridanglex="30"
       gridanglez="30"
       visible="true" />
  </sodipodi:namedview>
  <defs
     id="defs1">
    <clipPath
       clipPathUnits="userSpaceOnUse"
       id="clipPath1">
      <rect
         style="fill:#3c3836;stroke:#3c3836;stroke-width:0"
         id="rect3"
         width="10.583334"
         height="13.229167"
         x="0"
         y="0" />
    </clipPath>
    <clipPath
       clipPathUnits="userSpaceOnUse"
       id="clipPath3">
      <rect
         style="fill:#3c3836;stroke:#3c3836;stroke-width:0"
         id="rect4"
         width="10.583334"
         height="13.229167"
         x="0"
         y="0" />
    </clipPath>
  </defs>
  <g
     inkscape:label="Layer 1"
     inkscape:groupmode="layer"
     id="layer1">
    <path
       id="path5"
       style="opacity:1;fill:#3c3836;fill-opacity:1;stroke:#3c3836;stroke-width:0;stroke-dasharray:none;stroke-opacity:1"
       d="m 1.673633,6.7450323 9.861655,5.9395607 c 0.0056,-0.002 0.01272,-0.0022 0.02134,0 5e-4,1.03e-4 0.0033,0.0015 0.0059,0.0019 0.0059,0.0013 0.01159,0.0023 0.01758,0.0038 6.5e-4,1.35e-4 0.0049,-8e-4 0.0038,0 v 0.002 c 0.0017,-0.0011 0.0042,-0.0023 0.0079,-0.0038 l 0.0038,-1.928164 L 4.7067368,6.733405 11.570465,2.7414004 11.558875,0.79384514 Z" />
    <path
       style="fill:#fbf1c7;stroke:#3c3836;stroke-width:0"
       d="M 24.996518,36.857176 C 14.808116,30.714518 6.4160922,25.632496 6.3475767,25.563797 6.233301,25.449215 43.042744,3.1764598 43.564803,3.0442998 c 0.183038,-0.046337 0.219494,0.6961971 0.181242,3.6915149 l -0.04788,3.7495183 -12.864332,7.48237 -12.864332,7.482369 12.997287,7.596192 12.997289,7.59619 v 3.699467 c 0,2.845585 -0.05114,3.697648 -0.221593,3.691596 -0.121876,-0.0043 -8.557559,-5.033682 -18.745962,-11.176341 z"
       id="path6"
       transform="scale(0.26458331)" />
  </g>
</svg>
