<?xml version="1.0" encoding="UTF-8" standalone="no"?>
<!-- Created with Inkscape (http://www.inkscape.org/) -->

<svg
   width="40"
   height="1122.5197"
   viewBox="0 0 10.583334 296.99999"
   version="1.1"
   id="svg1"
   inkscape:version="1.3.2 (091e20ef0f, 2023-11-25, custom)"
   sodipodi:docname="columnDeco.svg"
   inkscape:export-filename="columnDeco.svg"
   inkscape:export-xdpi="96"
   inkscape:export-ydpi="96"
   xmlns:inkscape="http://www.inkscape.org/namespaces/inkscape"
   xmlns:sodipodi="http://sodipodi.sourceforge.net/DTD/sodipodi-0.dtd"
   xmlns="http://www.w3.org/2000/svg"
   xmlns:svg="http://www.w3.org/2000/svg">
  <sodipodi:namedview
     id="namedview1"
     pagecolor="#ffffff"
     bordercolor="#111111"
     borderopacity="1"
     inkscape:showpageshadow="0"
     inkscape:pageopacity="0"
     inkscape:pagecheckerboard="1"
     inkscape:deskcolor="#d1d1d1"
     inkscape:document-units="px"
     showgrid="true"
     inkscape:zoom="8.9871906"
     inkscape:cx="11.850199"
     inkscape:cy="48.068414"
     inkscape:window-width="1914"
     inkscape:window-height="1048"
     inkscape:window-x="0"
     inkscape:window-y="26"
     inkscape:window-maximized="1"
     inkscape:current-layer="layer1">
    <inkscape:grid
       id="grid1"
       units="px"
       originx="0"
       originy="0"
       spacingx="1.3229167"
       spacingy="2.6458334"
       empcolor="#0099e5"
       empopacity="0.30196078"
       color="#0099e5"
       opacity="0.14901961"
       empspacing="5"
       dotted="false"
       gridanglex="30"
       gridanglez="30"
       visible="true" />
  </sodipodi:namedview>
  <defs
     id="defs1" />
  <g
     inkscape:label="Layer 1"
     inkscape:groupmode="layer"
     id="layer1">
    <rect
       style="opacity:1;fill:#3c3836;fill-opacity:1;stroke:#3c3836;stroke-width:0.2616;stroke-opacity:1"
       id="rect2"
       width="0.26709476"
       height="285.4884"
       x="3.8349664"
       y="10.714132"
       ry="0" />
    <rect
       style="opacity:1;fill:#3c3836;fill-opacity:1;stroke:#3c3836;stroke-width:0.261599;stroke-opacity:1"
       id="rect5"
       width="0.26709476"
       height="285.4884"
       x="6.4808002"
       y="10.714133"
       ry="0" />
    <path
       id="path5"
       style="opacity:1;fill:#3c3836;fill-opacity:1;stroke:#3c3836;stroke-width:0;stroke-dasharray:none;stroke-opacity:1"
       d="M 5.2911501,7.9416343 3.7072674,10.578166 c 5.423e-4,0.0015 5.812e-4,0.0034 0,0.0057 -2.77e-5,1.42e-4 -4e-4,9.01e-4 -5.168e-4,0.0016 -3.321e-4,0.0016 -6.206e-4,0.0031 -0.00103,0.0047 -3.63e-5,1.75e-4 2.232e-4,0.0013 0,0.001 h -5.168e-4 c 2.782e-4,4.74e-4 5.929e-4,0.0011 0.00103,0.0021 l 0.5141805,0.001 1.0738363,-1.8417484 1.0645346,1.8350304 0.5193481,-0.0031 z" />
  </g>
</svg>
