<?xml version="1.0" encoding="UTF-8"?>
<!-- Created with Inkscape (http://www.inkscape.org/) -->
<svg width="1e3" height="1e3" version="1.1" viewBox="0 0 264.58 264.58" xmlns="http://www.w3.org/2000/svg">
 <path d="m135.18 2.7704a79.375 79.375 0 0 0-79.375 79.375 79.375 79.375 0 0 0 79.375 79.375 79.375 79.375 0 0 0 79.375-79.375 79.375 79.375 0 0 0-79.375-79.375z" fill="#decd87" stroke-width=".265"/>
 <path transform="matrix(.57741 .81646 -.57741 .81646 0 0)" d="m127.71-104.56 1.3e-4 121.02c0.0175-0.0011 0.0353-0.0028 0.0531-5e-3 0.0732-0.0063 0.14625-0.01045 0.21927-0.0161 0.0866-2e-3 0.16412 0.01137 0.23277 0.04572 0.0659 0.02839 0.12999 0.0594 0.1949 0.08929 0.0713 0.03164 0.14366 0.06146 0.22595 0.0747 0.0621 0.015 0.12593 0.02695 0.18666 0.04436 1e-3 3.33e-4 2e-3 5.35e-4 4e-3 8.73e-4 0.036 0.0072 0.0722 0.01424 0.10886 0.02026 0.11212 0.01736 0.23021 0.01927 0.3486 0.02104 0.1357 0.0015 0.27223 0.0017 0.40526 0.01058 0.10344 0.0078 0.20818 0.01327 0.30598 0.03391 0.0672 0.01415 0.0996 0.04535 0.10588 0.08083l120.91-3.65e-4 -5.5e-4 -121.42z" fill="#decd87" stroke-width=".28595"/>
 <rect transform="matrix(.57741 .81646 -.57741 .81646 0 0)" x="131.71" y="-100.69" width="114.68" height="112.93" fill="#28220b" stroke-width=".26595"/>
 <circle cx="135.18" cy="84.145" r="73.823" fill="#28220b" stroke-width=".24646"/>
 <rect transform="matrix(.57741 .81646 -.57741 .81646 0 0)" x="134.37" y="-98.113" width="108.94" height="107.28" fill="#decd87" stroke-width=".25265"/>
 <circle cx="135.18" cy="85.475" r="70.132" fill="#decd87" stroke-width=".23414"/>
 <circle cx="135.04" cy="70.554" r="27.744" fill="#28220b" stroke-width=".092626"/>
 <rect transform="matrix(.57741 .81646 -.57741 .81646 0 0)" x="146.28" y="-86.943" width="43.099" height="42.44" fill="#28220b" stroke-width=".09995"/>
 <g stroke-width=".265">
  <path d="m69.037 117.46 0.4507 0.59499-0.21621-0.64047z" fill="#decd87"/>
  <path d="m69.901 118.89-1.0538-2.3545 0.06114 1.5645z" fill="#decd87"/>
  <path d="m72.454 116.84 1.876 3.5672-2.5429-1.4981-0.32982-1.8712z" fill="#28220b"/>
 </g>
</svg>
