<?xml version="1.0" encoding="UTF-8" standalone="no"?>
<!-- Created with Inkscape (http://www.inkscape.org/) -->

<svg
   width="1000"
   height="1000"
   viewBox="0 0 264.58334 264.58334"
   version="1.1"
   id="svg1"
   inkscape:version="1.3.2 (091e20ef0f, 2023-11-25, custom)"
   sodipodi:docname="mapIconInkscape.svg"
   xmlns:inkscape="http://www.inkscape.org/namespaces/inkscape"
   xmlns:sodipodi="http://sodipodi.sourceforge.net/DTD/sodipodi-0.dtd"
   xmlns="http://www.w3.org/2000/svg"
   xmlns:svg="http://www.w3.org/2000/svg">
  <sodipodi:namedview
     id="namedview1"
     pagecolor="#ffffff"
     bordercolor="#111111"
     borderopacity="1"
     inkscape:showpageshadow="0"
     inkscape:pageopacity="0"
     inkscape:pagecheckerboard="1"
     inkscape:deskcolor="#d1d1d1"
     inkscape:document-units="mm"
     showgrid="true"
     inkscape:zoom="0.061578621"
     inkscape:cx="308.54864"
     inkscape:cy="227.35163"
     inkscape:window-width="1914"
     inkscape:window-height="1074"
     inkscape:window-x="0"
     inkscape:window-y="0"
     inkscape:window-maximized="1"
     inkscape:current-layer="layer1">
    <inkscape:grid
       id="grid3"
       units="mm"
       originx="0"
       originy="0"
       spacingx="1"
       spacingy="1"
       empcolor="#0099e5"
       empopacity="0.30196078"
       color="#0099e5"
       opacity="0.14901961"
       empspacing="19"
       dotted="false"
       gridanglex="30"
       gridanglez="30"
       visible="true" />
  </sodipodi:namedview>
  <defs
     id="defs1" />
  <g
     inkscape:label="Layer 1"
     inkscape:groupmode="layer"
     id="layer1">
    <path
       id="path1"
       style="fill:#decd87;stroke-width:0.264999"
       d="M 135.17573,2.7703735 A 79.375,79.375 0 0 0 55.800728,82.145374 79.375,79.375 0 0 0 135.17573,161.52037 79.375,79.375 0 0 0 214.55073,82.145374 79.375,79.375 0 0 0 135.17573,2.7703735 Z" />
    <path
       id="rect1"
       style="fill:#decd87;stroke-width:0.285953"
       transform="matrix(0.57740535,0.81645763,-0.57740535,0.81645763,0,0)"
       d="m 127.7081,-104.55535 1.3e-4,121.018873 c 0.0175,-0.0011 0.0353,-0.0028 0.0531,-0.005 0.0732,-0.0063 0.14625,-0.01045 0.21927,-0.0161 0.0866,-0.002 0.16412,0.01137 0.23277,0.04572 0.0659,0.02839 0.12999,0.0594 0.1949,0.08929 0.0713,0.03164 0.14366,0.06146 0.22595,0.0747 0.0621,0.015 0.12593,0.02695 0.18666,0.04436 0.001,3.33e-4 0.002,5.35e-4 0.004,8.73e-4 0.036,0.0072 0.0722,0.01424 0.10886,0.02026 0.11212,0.01736 0.23021,0.01927 0.3486,0.02104 0.1357,0.0015 0.27223,0.0017 0.40526,0.01058 0.10344,0.0078 0.20818,0.01327 0.30598,0.03391 0.0672,0.01415 0.0996,0.04535 0.10588,0.08083 l 120.91367,-3.65e-4 -5.5e-4,-121.418465 z" />
    <rect
       style="fill:#28220b;stroke-width:0.265951"
       id="rect4"
       width="114.67885"
       height="112.92535"
       x="131.7068"
       y="-100.68578"
       transform="matrix(0.57740534,0.81645763,-0.57740534,0.81645763,0,0)" />
    <circle
       style="fill:#28220b;stroke-width:0.246462"
       id="circle4"
       cx="135.17555"
       cy="84.145302"
       r="73.822716" />
    <rect
       style="fill:#decd87;stroke-width:0.252653"
       id="rect5"
       width="108.94491"
       height="107.27908"
       x="134.36504"
       y="-98.113358"
       transform="matrix(0.57740534,0.81645763,-0.57740534,0.81645763,0,0)" />
    <circle
       style="fill:#decd87;stroke-width:0.234139"
       id="circle5"
       cx="135.17555"
       cy="85.475014"
       r="70.131577" />
    <circle
       style="fill:#28220b;stroke-width:0.0926255"
       id="circle3"
       cx="135.03821"
       cy="70.553612"
       r="27.74404" />
    <rect
       style="fill:#28220b;stroke-width:0.0999495"
       id="rect3"
       width="43.098587"
       height="42.439583"
       x="146.28293"
       y="-86.942848"
       transform="matrix(0.57740534,0.81645763,-0.57740534,0.81645763,0,0)" />
    <path
       style="fill:#decd87;stroke-width:0.264999"
       d="m 69.037435,117.45798 0.450699,0.59499 -0.216212,-0.64047 z"
       id="path17" />
    <path
       style="fill:#decd87;stroke-width:0.264999"
       d="m 69.90145,118.89018 -1.05382,-2.35452 0.06114,1.56448 z"
       id="path18" />
    <path
       style="fill:#28220b;stroke-width:0.264999"
       d="m 72.454221,116.83966 1.875962,3.56715 -2.542915,-1.49806 -0.329817,-1.87115 z"
       id="path19" />
  </g>
</svg>
